<svg width="55" height="17" viewBox="0 0 55 17" fill="none" xmlns="http://www.w3.org/2000/svg">
<path d="M3.072 0.242526V12.9752H0V0.242526H3.072Z" fill="#124944"/>
<path d="M11.9368 0.242526C13.2977 0.242526 14.3823 0.538947 15.1907 1.13179C15.9991 1.72463 16.4034 2.54653 16.4034 3.59747C16.4034 3.98821 16.3292 4.33853 16.181 4.64842C16.0463 4.95832 15.8644 5.22779 15.6354 5.45684C15.4063 5.67242 15.1503 5.85432 14.8674 6.00253C14.5979 6.15074 14.3284 6.25179 14.0589 6.30568C14.4227 6.37305 14.7663 6.48758 15.0897 6.64926C15.4265 6.79747 15.7162 6.99958 15.9587 7.25558C16.2147 7.49811 16.4168 7.79453 16.565 8.14484C16.7132 8.49516 16.7874 8.89937 16.7874 9.35747C16.7874 9.88295 16.6728 10.368 16.4438 10.8126C16.2147 11.2573 15.8846 11.6413 15.4535 11.9646C15.0223 12.2745 14.4968 12.5238 13.877 12.7124C13.2707 12.8876 12.5903 12.9752 11.8358 12.9752H7.14693V0.242526H11.9368ZM10.2189 5.25474H11.4518C12.0311 5.25474 12.4758 5.12674 12.7857 4.87074C13.0956 4.60126 13.2505 4.25095 13.2505 3.81979C13.2505 3.41558 13.1023 3.10568 12.8059 2.89011C12.5095 2.66105 12.0648 2.54653 11.472 2.54653H10.2189V5.25474ZM10.2189 10.6712H11.4114C12.0716 10.6712 12.6038 10.5499 13.008 10.3074C13.4257 10.0648 13.6345 9.6539 13.6345 9.07453C13.6345 8.53558 13.4324 8.14484 13.0282 7.90232C12.624 7.65979 12.0918 7.53853 11.4316 7.53853H10.2189V10.6712Z" fill="#124944"/>
<path d="M20.2939 0.242526H28.7823V2.58695H23.3659V5.19411H28.2568V7.51832H23.3659V10.6307H28.8429V12.9752H20.2939V0.242526Z" fill="#124944"/>
<path d="M31.8519 11.4189C31.8519 10.9069 32.0203 10.4893 32.3572 10.1659C32.7075 9.82905 33.1184 9.66063 33.59 9.66063C34.0616 9.66063 34.4658 9.82905 34.8026 10.1659C35.1395 10.4893 35.3079 10.9069 35.3079 11.4189C35.3079 11.9714 35.1395 12.4093 34.8026 12.7326C34.4658 13.0425 34.0616 13.1975 33.59 13.1975C33.1184 13.1975 32.7075 13.0425 32.3572 12.7326C32.0203 12.4093 31.8519 11.9714 31.8519 11.4189Z" fill="#124944"/>
<path d="M41.9098 0.242526V10.6509C41.9098 11.2034 41.8896 11.7019 41.8491 12.1465C41.8222 12.5777 41.7616 12.9684 41.6672 13.3187C41.5864 13.6825 41.4651 14.0126 41.3035 14.3091C41.1552 14.6055 40.9666 14.8817 40.7376 15.1377C40.266 15.6497 39.6866 16.0067 38.9995 16.2088C38.3258 16.4109 37.5982 16.512 36.8167 16.512V14.1878C37.1536 14.1878 37.4365 14.1339 37.6656 14.0261C37.9081 13.9318 38.1035 13.8173 38.2517 13.6825C38.4942 13.4804 38.6491 13.2109 38.7165 12.8741C38.7974 12.5373 38.8378 12.1533 38.8378 11.7221V0.242526H41.9098Z" fill="#124944"/>
<path d="M50.2829 0C51.1722 0 51.9402 0.0943158 52.5869 0.282947C53.2337 0.458105 53.7928 0.673684 54.2644 0.929684L53.5772 3.17305C53.0518 2.90358 52.5195 2.69474 51.9806 2.54653C51.4551 2.38484 50.9499 2.304 50.4648 2.304C49.845 2.304 49.3734 2.41853 49.0501 2.64758C48.7267 2.87663 48.565 3.17979 48.565 3.55705C48.565 3.98821 48.72 4.30484 49.0299 4.50695C49.3398 4.69558 49.8181 4.89768 50.4648 5.11326L51.6572 5.49726C52.1288 5.65895 52.5667 5.86105 52.9709 6.10358C53.3751 6.33263 53.7187 6.60211 54.0017 6.912C54.2981 7.2219 54.5271 7.57221 54.6888 7.96295C54.8505 8.35368 54.9313 8.77811 54.9313 9.23621C54.9313 9.77516 54.8303 10.2872 54.6282 10.7722C54.4261 11.2438 54.1162 11.6615 53.6985 12.0253C53.2943 12.3891 52.7755 12.6787 52.1423 12.8943C51.5225 13.0964 50.7882 13.1975 49.9393 13.1975C49.1444 13.1975 48.3831 13.1166 47.6555 12.9549C46.9414 12.7798 46.2812 12.5373 45.6749 12.2274L46.3621 9.984C46.9414 10.2669 47.5073 10.4893 48.0598 10.6509C48.6122 10.8126 49.1915 10.8935 49.7979 10.8935C50.512 10.8935 51.024 10.7789 51.3339 10.5499C51.6572 10.3074 51.8189 9.984 51.8189 9.57979C51.8189 9.44505 51.792 9.31032 51.7381 9.17558C51.6842 9.04084 51.5764 8.90611 51.4147 8.77137C51.2665 8.63663 51.0509 8.50863 50.768 8.38737C50.4985 8.25263 50.1482 8.1179 49.717 7.98316L48.7267 7.63958C48.2551 7.46442 47.8172 7.26905 47.413 7.05347C47.0088 6.8379 46.6585 6.58189 46.3621 6.28547C46.0791 5.98905 45.8568 5.64547 45.6951 5.25474C45.5334 4.864 45.4526 4.39916 45.4526 3.86021C45.4526 3.30779 45.5536 2.79579 45.7558 2.32421C45.9713 1.85263 46.2812 1.44842 46.6854 1.11158C47.1031 0.761263 47.6084 0.491789 48.2012 0.303158C48.8075 0.101053 49.5014 0 50.2829 0Z" fill="#124944"/>
</svg>
