<svg width="32" height="32" viewBox="0 0 32 32" fill="none" xmlns="http://www.w3.org/2000/svg">
<rect width="32" height="32" rx="8" fill="white"/>
<path d="M10 11.3333C9.91167 11.3321 9.82396 11.3484 9.74199 11.3813C9.66001 11.4143 9.58539 11.4632 9.52248 11.5252C9.45957 11.5872 9.40961 11.6612 9.37551 11.7427C9.34141 11.8242 9.32385 11.9116 9.32385 12C9.32385 12.0883 9.34141 12.1758 9.37551 12.2573C9.40961 12.3388 9.45957 12.4127 9.52248 12.4748C9.58539 12.5368 9.66001 12.5857 9.74199 12.6186C9.82396 12.6516 9.91167 12.6679 10 12.6667H22C22.0884 12.6679 22.1761 12.6516 22.258 12.6186C22.34 12.5857 22.4146 12.5368 22.4775 12.4748C22.5405 12.4127 22.5904 12.3388 22.6245 12.2573C22.6586 12.1758 22.6762 12.0883 22.6762 12C22.6762 11.9116 22.6586 11.8242 22.6245 11.7427C22.5904 11.6612 22.5405 11.5872 22.4775 11.5252C22.4146 11.4632 22.34 11.4143 22.258 11.3813C22.1761 11.3484 22.0884 11.3321 22 11.3333H10ZM10 15.3333C9.91167 15.3321 9.82396 15.3484 9.74199 15.3813C9.66001 15.4143 9.58539 15.4632 9.52248 15.5252C9.45957 15.5872 9.40961 15.6612 9.37551 15.7427C9.34141 15.8242 9.32385 15.9116 9.32385 16C9.32385 16.0883 9.34141 16.1758 9.37551 16.2573C9.40961 16.3388 9.45957 16.4127 9.52248 16.4748C9.58539 16.5368 9.66001 16.5857 9.74199 16.6186C9.82396 16.6516 9.91167 16.6679 10 16.6667H22C22.0884 16.6679 22.1761 16.6516 22.258 16.6186C22.34 16.5857 22.4146 16.5368 22.4775 16.4748C22.5405 16.4127 22.5904 16.3388 22.6245 16.2573C22.6586 16.1758 22.6762 16.0883 22.6762 16C22.6762 15.9116 22.6586 15.8242 22.6245 15.7427C22.5904 15.6612 22.5405 15.5872 22.4775 15.5252C22.4146 15.4632 22.34 15.4143 22.258 15.3813C22.1761 15.3484 22.0884 15.3321 22 15.3333H10ZM10 19.3333C9.91167 19.3321 9.82396 19.3484 9.74199 19.3813C9.66001 19.4143 9.58539 19.4632 9.52248 19.5252C9.45957 19.5872 9.40961 19.6612 9.37551 19.7427C9.34141 19.8242 9.32385 19.9116 9.32385 20C9.32385 20.0883 9.34141 20.1758 9.37551 20.2573C9.40961 20.3388 9.45957 20.4127 9.52248 20.4748C9.58539 20.5368 9.66001 20.5857 9.74199 20.6186C9.82396 20.6516 9.91167 20.6679 10 20.6667H22C22.0884 20.6679 22.1761 20.6516 22.258 20.6186C22.34 20.5857 22.4146 20.5368 22.4775 20.4748C22.5405 20.4127 22.5904 20.3388 22.6245 20.2573C22.6586 20.1758 22.6762 20.0883 22.6762 20C22.6762 19.9116 22.6586 19.8242 22.6245 19.7427C22.5904 19.6612 22.5405 19.5872 22.4775 19.5252C22.4146 19.4632 22.34 19.4143 22.258 19.3813C22.1761 19.3484 22.0884 19.3321 22 19.3333H10Z" fill="#124944"/>
</svg>
