<svg xmlns="http://www.w3.org/2000/svg" viewBox="0 0 190.89 32"><path fill="#202525" d="M50.84 9.19v13.62c0 .49-.4.89-.89.89-.27 0-.53-.12-.69-.34l-9.17-11.61v11.06c0 .49-.4.89-.89.89s-.89-.4-.89-.89V9.19a.892.892 0 0 1 1.59-.55l9.17 11.61V9.19c0-.49.4-.89.89-.89s.89.4.89.89zM69.1 16c0 4.41-3.4 8-7.58 8s-7.58-3.59-7.58-8 3.4-8 7.58-8 7.58 3.59 7.58 8zm-1.78 0c0-3.43-2.6-6.22-5.8-6.22s-5.8 2.79-5.8 6.22 2.6 6.22 5.8 6.22 5.8-2.79 5.8-6.22zm62.69 0c0 4.41-3.4 8-7.58 8s-7.58-3.59-7.58-8 3.4-8 7.58-8 7.58 3.59 7.58 8zm-1.78 0c0-3.43-2.6-6.22-5.8-6.22s-5.8 2.79-5.8 6.22 2.6 6.22 5.8 6.22 5.8-2.79 5.8-6.22zm16.35-7.7c-.49 0-.89.4-.89.89v8.32a4.538 4.538 0 1 1-9.07.33V9.19c0-.49-.4-.89-.89-.89s-.89.4-.89.89v8.32a6.323 6.323 0 0 0 12.64.32V9.2c0-.49-.4-.89-.89-.89zm-32.12 10.19a3.99 3.99 0 0 0-1.2-1.74c-.5-.42-1.06-.76-1.66-1.02-.57-.25-1.16-.45-1.76-.59-.32-.09-.55-.12-.86-.2a9.83 9.83 0 0 1-.78-.18c-.49-.12-.97-.28-1.43-.49-.4-.17-.76-.42-1.06-.73-.12-.14-.22-.29-.29-.45-.07-.16-.12-.32-.14-.49-.13-.74.15-1.5.73-1.98.59-.45 1.3-.73 2.04-.79.67-.08 1.35-.06 2.02.08.51.11 1.01.28 1.49.51.31.15.62.31.91.5.09.05.19.12.24.16l.09.06c.36.26.86.18 1.12-.19.26-.36.17-.86-.19-1.12l-.34-.25c-.34-.25-.7-.48-1.07-.67-.59-.32-1.22-.55-1.87-.7-.85-.2-1.73-.24-2.6-.14-1.09.1-2.13.52-2.99 1.21-.5.42-.88.95-1.12 1.56-.06.15-.1.32-.15.48-.03.16-.06.33-.09.5l-.02.25v.29l.01.2c0 .08 0 .15.02.23.08.73.39 1.41.87 1.96.46.49 1.02.89 1.64 1.16.56.25 1.15.46 1.75.6.29.08.58.14.87.2.24.05.57.11.79.18.97.2 1.88.62 2.66 1.22.64.49.92 1.32.69 2.1-.04.16-.11.32-.19.47-.04.08-.09.16-.15.23a.91.91 0 0 1-.18.21c-.27.28-.59.5-.95.65-.73.31-1.51.47-2.31.46-.18 0-.36 0-.55-.02a5.816 5.816 0 0 1-1.41-.33c-.51-.18-1-.4-1.47-.68-.31-.17-.6-.36-.89-.57-.2-.14-.29-.22-.29-.22a.805.805 0 0 0-1.13.08c-.28.32-.26.81.05 1.11l.02.02s.12.11.34.3c.32.27.66.51 1.01.73.55.35 1.14.64 1.75.87.39.14.78.26 1.18.34.23.05.46.08.69.11.23.03.46.04.7.03 1.04 0 2.08-.2 3.03-.62 1.23-.5 2.14-1.56 2.47-2.84l.03-.14v-.1l.04-.2v-.05l.02-.08v-.42c0-.17-.03-.35-.05-.53a8.21 8.21 0 0 0-.13-.53zM84.85 16c0 4.89-3.16 7.7-8.67 7.7h-3.16c-.49 0-.89-.4-.89-.89V9.19c0-.49.4-.89.89-.89h3.16c5.99 0 8.67 3.87 8.67 7.7zm-1.78 0c0-3.6-2.71-5.92-6.89-5.92h-2.27v11.84h2.27c5.7 0 6.89-3.22 6.89-5.92zm14.82-5.92c.49 0 .89-.4.89-.89s-.4-.89-.89-.89h-9.1c-.49 0-.89.4-.89.89v13.62c0 .49.4.89.89.89h9.1c.49 0 .89-.4.89-.89s-.4-.89-.89-.89h-8.21v-5.07h5.76c.49 0 .89-.4.89-.89s-.4-.89-.89-.89h-5.77v-5h8.21zm92.11 0c.49 0 .89-.4.89-.89s-.4-.89-.89-.89h-9.1c-.49 0-.89.4-.89.89v13.62c0 .49.4.89.89.89h9.1c.49 0 .89-.4.89-.89s-.4-.89-.89-.89h-8.21v-5.07h5.77c.49 0 .89-.4.89-.89s-.4-.89-.89-.89h-5.77v-5H190zM160.62 22.3c.28.4.19.96-.21 1.24s-.96.19-1.24-.21l-4.57-6.47h-3.95v5.96c0 .49-.4.89-.89.89s-.89-.4-.89-.89V9.2c0-.49.4-.89.89-.89h6.32c2.69 0 4.64 1.8 4.64 4.28 0 2.27-1.64 3.96-3.97 4.23l3.88 5.49zm-4.55-7.23c1.69 0 2.86-1.03 2.86-2.5s-1.18-2.5-2.86-2.5h-5.43v4.99h5.43zm8.77.21c.04-.21.05-.41.11-.63a6.361 6.361 0 0 1 2-3.35c.62-.54 1.34-.95 2.11-1.2.7-.22 1.43-.33 2.17-.32 1.1.03 2.18.34 3.12.91.27.16.52.33.76.53l.25.21.04.03a.8.8 0 0 0 1.07-1.19l-.3-.29A7.704 7.704 0 0 0 171.26 8c-.94-.02-1.88.11-2.77.4-1 .33-1.92.86-2.72 1.55a8.11 8.11 0 0 0-2.01 2.67c-.24.52-.43 1.07-.56 1.64-.07.28-.1.6-.15.9-.02.15-.02.26-.03.4l-.02.43c0 3.44 2.21 6.5 5.48 7.59.47.15.96.26 1.45.33.22.04.44.06.66.06l.3.02h.36a7.71 7.71 0 0 0 4.91-2l.27-.26c.32-.31.33-.81.02-1.13a.803.803 0 0 0-1.09-.06l-.28.24c-.24.19-.49.36-.75.52-.95.57-2.03.88-3.13.91h-.22l-.3-.02c-.19 0-.38-.02-.57-.05a6.084 6.084 0 0 1-3.18-1.46 6.251 6.251 0 0 1-2.15-4.69l.02-.34c.01-.12.01-.26.03-.37z"/><path fill="#89a19d" d="M26.91 6.68 16.16.48a3.578 3.578 0 0 0-3.58 0L1.8 6.7A3.604 3.604 0 0 0 0 9.8v12.41c-.01 1.28.67 2.47 1.79 3.11l10.75 6.2c1.11.64 2.47.64 3.58 0l10.77-6.22a3.574 3.574 0 0 0 1.79-3.1V9.79c.01-1.28-.67-2.47-1.79-3.11zM13.19 1.54c.17-.1.36-.18.55-.23v5.3c0 .34.27.61.61.61s.61-.27.61-.61v-5.3c.2.05.4.13.58.24l10.75 6.2c.18.1.34.23.49.37l-6.52 3.76a7.194 7.194 0 0 0-10.02-1.81c-.71.49-1.32 1.1-1.81 1.81l-6.5-3.75c.14-.14.31-.27.48-.37l10.78-6.22zM20.35 16c0 3.07-2.32 5.64-5.38 5.96v-5.6l4.85-2.8c.35.77.53 1.6.53 2.44zM8.9 13.56l4.85 2.79v5.6a5.968 5.968 0 0 1-5.34-6.55c.06-.64.23-1.26.5-1.85zm5.46 1.73L9.51 12.5a5.97 5.97 0 0 1 9.69-.01l-4.85 2.8zM2.41 24.26c-.18-.1-.34-.23-.49-.37l4.2-2.42c.3-.16.41-.53.26-.83a.623.623 0 0 0-.83-.26c-.02 0-.03.02-.04.03l-4.2 2.42c-.05-.2-.08-.4-.08-.61V9.81c0-.21.04-.41.09-.61l6.51 3.75c-1.69 3.59-.16 7.88 3.44 9.57.78.37 1.62.59 2.48.66v7.35c0 .06.01.12.03.17a2.28 2.28 0 0 1-.61-.24l-10.75-6.2zm13.11 6.2c-.18.11-.38.19-.59.24.02-.05.03-.11.03-.16v-7.35a7.2 7.2 0 0 0 6.58-7.76c-.07-.86-.3-1.7-.67-2.48l6.52-3.76c.05.2.08.4.08.61v12.41c0 .21-.04.42-.09.62l-4.18-2.41a.618.618 0 0 0-.84.22c-.17.29-.07.67.22.84l4.18 2.41c-.14.14-.3.26-.47.36l-10.77 6.22z"/></svg>